 http://desibbrg.org/images/66952052392581364616.gif 
http://desibbrg.org/images/07370941737334335753.png 
http://desibbrg.org/images/84781791518469470876.png 
http://desibbrg.org/images/46701429959063079725.png 
http://desibbrg.org/images/36887854007633433868.png 
http://desibbrg.org/images/97226021677442571682.png

Info - 
αñòαñ▓αñ╛αñòαñ╛αñ░ αñåαñúαñ┐ αñ╕αñ╣αñ╛αñ»αÑìαñ»αñò
αñòαñ▓αñ╛αñòαñ╛αñ░ -
    Frank M. Ahearn
    Ramnita Chaudhry
    Preeti Chauhan
    Divya Dutta
    Satish Kaushik
    Govind Namdeo
    Zakir Hussain

αñªαñ┐αñùαÑìαñªαñ░αÑìαñ╢αñò - Ajay Yadav

αñ¿αñ┐αñ░αÑìαñ«αñ╛αññαÑç - Ajay Yadav

αñ▓αÑçαñûαñò - Ajay Yadav

'Overtime' is a tale of a young and beautiful girl Khushi (Swati Sharma) who resides in Mumbai and is working as a 'High Profile Call Girl' but with the dreams of developing into fame Bollywood actress in the future. From corrupt politician Aatre (Satish Kaushik), to a well known businessman Huda (Yashpal Sharma) who is dealing into construction, his determined secretary Liza (Aarzoo Govitrikar), womanizer architect Rajeev (Zakir Hussain), and lastly to a movie co-coordinator Shankar (Vijay Raj). In the midst of all this, Khushi is still holding on to her dream of becoming Bollywood actress. She continues to fight to keep her hope alive against all probabilities. 

Media Info - 
Video
ID                             : 1
Format                         : AVC
Format/Info                    : Advanced Video Codec
Format profile                 : Main@L3.0
Format settings, CABAC         : Yes
Format settings, ReFrames      : 4 frames
Codec ID                       : avc1
Codec ID/Info                  : Advanced Video Coding
Duration                       : 1h 49mn
Bit rate mode                  : Variable
Bit rate                       : 790 Kbps
Width                          : 640 pixels
Height                         : 364 pixels
Display aspect ratio           : 16:9
Frame rate mode                : Constant
Frame rate                     : 25.000 fps
Color space                    : YUV
Chroma subsampling             : 4:2:0
Bit depth                      : 8 bits
Scan type                      : Progressive
Bits/(Pixel*Frame)             : 0.136
Stream size                    : 618 MiB (83%)
Writing library                : x264 core 120
Color primaries                : BT.601 NTSC
Transfer characteristics       : BT.709
Matrix coefficients            : BT.601

Audio
ID                             : 2
Format                         : AAC
Format/Info                    : Advanced Audio Codec
Format profile                 : LC
Codec ID                       : 40
Duration                       : 1h 49mn
Bit rate mode                  : Variable
Bit rate                       : 156 Kbps
Maximum bit rate               : 206 Kbps
Channel(s)                     : 2 channels
Channel positions              : Front: L R
Sampling rate                  : 44.1 KHz
Compression mode               : Lossy
Delay relative to video        : 80ms
Stream size                    : 122 MiB (16%)

Ripper : Saket

Seeding 24x7... Extreme Seeding...


Enjoy!
